<?xml version="1.0" encoding="UTF-8"?>
<svg width="36px" height="36px" viewBox="0 0 36 36" version="1.1" xmlns="http://www.w3.org/2000/svg" xmlns:xlink="http://www.w3.org/1999/xlink">
    <!-- Generator: Sketch 45.2 (43514) - http://www.bohemiancoding.com/sketch -->
    <title>checkmark</title>
    <desc>Created with Sketch.</desc>
    <defs>
        <path d="M15.4946634,21.3557746 L11.1021439,16.9632551 C10.5958789,16.4569902 9.78547802,16.4577876 9.28514608,16.9581196 C8.78132592,17.4619397 8.78711341,18.2719491 9.29028164,18.7751174 L14.4370843,23.92192 C14.5591411,24.0439769 14.6988761,24.1365603 14.8476819,24.1997759 C15.3554945,24.5398868 16.0456148,24.4739101 16.4857883,24.0180971 L26.1054923,14.056602 C26.6080761,13.5361611 26.5882324,12.7309747 26.0792447,12.239451 C25.5667084,11.7445004 24.7567762,11.764576 24.2622846,12.276637 L15.4946634,21.3557746 Z" id="path-1"></path>
    </defs>
    <g id="Explore" stroke="none" stroke-width="1" fill="none" fill-rule="evenodd">
        <g id="inline-two-step-copy-13" transform="translate(-1113.000000, -489.000000)">
            <g id="Open-selected-state-Copy-2" transform="translate(804.000000, 446.000000)">
                <g id="checkmark" transform="translate(309.000000, 43.000000)">
                    <path d="M17.8201642,0 C7.97897852,0 0,7.97897852 0,17.8201642 C0,27.6613499 7.97897852,35.6403284 17.8201642,35.6403284 C27.6613499,35.6403284 35.6403284,27.6613499 35.6403284,17.8201642 C35.6403284,7.97897852 27.6613499,0 17.8201642,0 L17.8201642,0 Z" id="icon-add-sk-copy-10" fill="#FFFFFF"></path>
                    <g id="Rectangle-1044-Copy-3">
                        <use fill="#555555" fill-rule="evenodd" xlink:href="#path-1"></use>
                        <path stroke="#555555" stroke-width="0.25" d="M15.4931071,21.1774416 L24.1723671,12.1898047 C24.7158408,11.6270213 25.6049306,11.6076407 26.166077,12.1495335 C26.7276147,12.6918042 26.7431596,13.5762226 26.1954097,14.1434343 L16.5757057,24.1049294 C16.0974856,24.6001408 15.3409793,24.6806111 14.798807,24.3148248 C14.6323148,24.2440957 14.4798692,24.1414817 14.3486959,24.0103084 L9.20189329,18.8635057 C8.64885851,18.3104709 8.64516147,17.4213275 9.19675773,16.8697312 C9.74703667,16.3194523 10.6365865,16.320921 11.1905322,16.8748668 L15.4931071,21.1774416 Z"></path>
                    </g>
                </g>
            </g>
        </g>
    </g>
</svg>